<?xml version="1.0" standalone="no"?><!DOCTYPE svg PUBLIC "-//W3C//DTD SVG 1.1//EN" "http://www.w3.org/Graphics/SVG/1.1/DTD/svg11.dtd"><svg t="1695190737864" class="icon" viewBox="0 0 1024 1024" version="1.1" xmlns="http://www.w3.org/2000/svg" p-id="4368" xmlns:xlink="http://www.w3.org/1999/xlink" width="200" height="200"><path d="M512.00704 512.024269m-413.980376 0a413.980376 413.980376 0 1 0 827.960752 0 413.980376 413.980376 0 1 0-827.960752 0Z" fill="#F0C48A" p-id="4369"></path><path d="M552.205135 347.632061L233.420246 666.21696c-59.797165-15.999242-126.194018 0-172.391829 47.997725C-5.968407 784.011376-4.568473 893.2062 64.228266 961.202977s179.591487 67.796786 248.188235-0.599972c45.99782-45.99782 61.197099-111.194729 45.597839-169.991942l432.779485-432.779485c58.597222 15.599261 123.794132 0.599972 169.991942-45.597839 45.397848-45.397848 60.797118-109.194824 46.19781-167.192074l-94.395525 94.395525c-35.398322 35.398322-92.595611 35.398322-127.993933 0-35.398322-35.398322-35.398322-92.595611 0-127.993933l94.395525-94.395525c-57.997251-14.399317-121.794227 0.999953-167.192075 46.19781-45.99782 45.99782-61.197099 111.194729-45.597838 169.991942L629.401475 270.03574l-77.19634 77.596321zM211.621279 961.402967L94.426834 930.004456l-31.398511-117.194445 85.795933-85.795933 117.194444 31.398511 31.398512 117.194445-85.795933 85.795933z" fill="#A4CFF2" p-id="4370"></path><path d="M759.195323 389.23009l31.598502-31.598503c58.597222 15.599261 123.794132 0.599972 169.991942-45.597838 45.397848-45.397848 60.797118-109.194824 46.19781-167.192075l-3.199848 3.199848c-54.997393 173.791762-169.19198 179.991468-225.189326 171.191886-21.998957-3.399839-44.197905 3.599829-59.997156 19.39908l-379.981988 379.981988c-14.599308 14.599308-21.998957 34.79835-19.999052 55.197384 2.199896 21.598976-0.599972 54.397421-23.398891 92.995591l2.199896 8.399602-85.795933 85.795933-11.39946-2.999858c-72.596559 35.798303-134.193639 3.199848-137.193496 1.599925l1.399933 1.399933c68.796739 67.996777 179.591487 67.796786 248.188236-0.599971 45.99782-45.99782 61.197099-111.194729 45.597838-169.991942l23.598881-23.598882 377.382112-377.582101z" fill="#7BABF1" p-id="4371"></path><path d="M188.022398 1023.600019c-47.797734 0-95.595469-17.999147-131.993744-53.99744C20.630332 934.404247 0.63128 888.006446 0.031309 838.608788c-0.599972-49.397658 17.999147-96.395431 52.597507-132.393724 45.797829-47.597744 113.194634-67.596796 177.1916-52.997488l313.985117-313.985116 109.594805-109.594805c-14.199327-62.597033 4.599782-128.993885 50.19762-174.591724C749.995759 8.848121 818.192526-10.150979 881.989502 5.848263c4.199801 0.999953 7.399649 4.199801 8.399602 8.199611 1.199943 3.99981 0 8.399602-2.999858 11.39946l-94.395525 94.395525c-14.799298 14.799298-22.99891 34.59836-22.99891 55.597365s8.199611 40.798066 22.99891 55.597364c30.59855 30.59855 80.59618 30.59855 111.394719 0l94.395526-94.395525c2.999858-2.999858 7.399649-4.199801 11.399459-2.999858 3.99981 1.199943 7.199659 4.399791 8.199612 8.399602 15.799251 63.596985-2.999858 131.993743-49.397659 178.191553-45.597839 45.597839-111.994691 64.396947-174.591724 50.197621L370.813733 794.210893c14.199327 62.597033-4.599782 128.993885-50.197621 174.591723-36.398275 36.598265-84.59599 54.797402-132.593714 54.797403zM188.022398 672.016685c-44.197905 0-87.195867 17.799156-118.594379 50.397611-30.198569 31.398512-46.597791 72.596559-45.997819 115.794511 0.599972 43.197952 17.999147 83.996018 48.997677 114.594568 63.996966 63.396995 167.992037 62.997014 231.589022-0.599972 41.198047-41.198047 57.59727-101.995165 42.39799-158.592482-0.999953-3.99981 0-8.399602 2.999858-11.39946l432.779485-432.779485c2.999858-2.999858 7.199659-4.199801 11.39946-2.999858 56.597317 14.999289 117.394435-1.199943 158.592482-42.39799 35.998294-35.998294 52.797497-85.195962 46.997773-134.79361l-78.596275 78.596274c-39.798113 39.798113-104.595042 39.798113-144.393155 0-19.19909-19.19909-29.998578-44.997867-29.998578-72.196578 0-27.198711 10.599498-52.997488 29.998578-72.196577l78.596274-78.596275C805.193142 19.047637 755.995474 35.846841 719.997181 71.845134c-41.198047 41.198047-57.59727 101.995165-42.39799 158.592483 0.999953 3.99981 0 8.399602-2.999858 11.399459L560.404746 356.031663l-8.199611-8.199611 8.199611 8.199611-318.584898 318.384908c-2.999858 2.999858-7.199659 4.199801-11.39946 2.999858A169.991942 169.991942 0 0 0 188.022398 672.016685z m23.598881 300.985732c-0.999953 0-1.999905-0.199991-2.999858-0.399981l-117.194445-31.398511c-3.99981-0.999953-7.199659-4.199801-8.199611-8.199612l-31.398511-117.194444c-0.999953-3.99981 0-8.399602 2.999857-11.39946l85.795933-85.795933c2.999858-2.999858 7.199659-4.199801 11.39946-2.999858l117.194445 31.398512c3.99981 0.999953 7.199659 4.199801 8.199611 8.199611l31.398512 117.194445c0.999953 3.99981 0 8.399602-2.999858 11.399459L220.020881 969.602579c-2.399886 2.199896-5.399744 3.399839-8.399602 3.399838z m-107.79489-52.597506l104.195061 27.998672 76.196388-76.196388-27.998673-104.195061L152.024104 740.013462l-76.196388 75.996397 27.998673 104.395052z" fill="#4C4372" p-id="4372"></path><path d="M239.219971 148.641494L58.22855 11.847978 11.83075 58.245779l136.793515 180.991421 27.998673-28.198664 263.187524 263.187525 34.39837-34.39837L211.021307 176.640167z" fill="#D3E6F8" p-id="4373"></path><path d="M239.219971 148.641494L58.22855 11.847978l-15.999241 15.999242 143.993174 111.194729c7.999621 6.199706 8.799583 17.999147 1.599924 25.198806a16.779205 16.779205 0 0 0 0 23.798871l268.987249 268.587269 17.199185-17.199185L211.021307 176.640167l28.198664-27.998673z" fill="#7BABF1" p-id="4374"></path><path d="M439.810462 485.825511c-3.199848 0-5.999716-1.199943-8.199611-3.399839L176.622938 227.637749l-19.799061 19.799062c-2.399886 2.399886-5.799725 3.599829-8.999574 3.399839-3.399839-0.199991-6.399697-1.999905-8.599592-4.599782L2.431195 65.445438c-3.599829-4.599782-2.999858-11.199469 0.999953-15.39927L50.028939 3.448377c4.199801-4.199801 10.599498-4.599782 15.39927-0.999953l180.79143 136.793516c2.799867 1.999905 4.399791 5.199754 4.599782 8.599592 0.199991 3.399839-0.999953 6.599687-3.399839 8.999573l-19.799061 19.799062 254.787922 254.787922c4.599782 4.599782 4.599782 11.999431 0 16.599213L448.010074 482.425672c-2.199896 2.199896-5.199754 3.399839-8.199612 3.399839zM176.622938 199.239096c3.199848 0 5.999716 1.199943 8.199611 3.399838l254.787923 254.787923 17.799156-17.799156L202.821696 185.039769c-4.599782-4.599782-4.599782-11.999431 0-16.599213l18.599118-18.599119-161.992321-122.594189-31.998483 31.998484 122.594189 161.992321 18.599118-18.599119c1.999905-1.999905 4.999763-3.399839 7.999621-3.399838z" fill="#4C4372" p-id="4375"></path><path d="M475.408775 560.621965l63.197004 63.197005 85.195962-85.195962-131.793753-129.393866-85.195962 85.195961 18.399128 15.999242z" fill="#D3E6F8" p-id="4376"></path><path d="M470.808993 431.62808l129.793847 130.193828 22.598929-22.398938-129.993838-130.193828z" fill="#7BABF1" p-id="4377"></path><path d="M538.605779 635.61841c-3.199848 0-5.999716-1.199943-8.199611-3.399839l-129.593857-129.593857c-2.199896-2.199896-3.399839-5.199754-3.399839-8.199611 0-3.199848 1.199943-5.999716 3.399839-8.199611l85.195961-85.195962c4.599782-4.599782 11.999431-4.599782 16.599214 0l129.593857 129.593857c2.199896 2.199896 3.399839 5.199754 3.399838 8.199612 0 3.199848-1.199943 5.999716-3.399838 8.199611l-85.195962 85.195961c-2.199896 2.199896-5.199754 3.399839-8.399602 3.399839z m-112.994644-141.193307l7.799631 7.79963 105.195013 105.195014 68.596749-68.596748-112.994644-112.994644-68.596749 68.596748z" fill="#4C4372" p-id="4378"></path><path d="M992.184278 956.603195l-35.598312 35.598312c-26.598739 26.598739-70.196673 26.598739-96.795412 0L541.005665 673.416618c-26.598739-26.598739-26.598739-70.196673 0-96.795411l35.598313-35.598313c26.598739-26.598739 70.196673-26.598739 96.795412 0l318.784888 318.784889c26.598739 26.598739 26.598739 70.196673 0 96.795412z" fill="#FD919E" p-id="4379"></path><path d="M992.184278 859.807783L673.39939 541.022894c-26.598739-26.598739-70.196673-26.598739-96.795412 0l-0.399981 0.399981L991.984288 957.003176l0.399981-0.399981c26.398749-26.598739 26.398749-70.196673-0.199991-96.795412z" fill="#E8677D" p-id="4380"></path><path d="M908.18826 1024c-20.599024 0-40.998057-7.79963-56.597317-23.398891L532.806054 681.81622c-31.198521-31.198521-31.198521-82.196104 0-113.394625l35.598313-35.598312c14.999289-14.999289 35.198332-23.398891 56.597317-23.398891s41.598028 8.399602 56.597317 23.398891l318.784889 318.784889c31.198521 31.198521 31.198521 82.196104 0 113.394625l-35.598313 35.598312c-15.39927 15.599261-35.998294 23.398891-56.597317 23.398891zM625.001684 532.823283c-14.599308 0-28.998625 5.599735-40.198095 16.599213l-35.598312 35.598313c-22.198948 22.198948-22.198948 58.197241 0 80.196198L868.190156 984.001896c22.198948 22.198948 58.197241 22.198948 80.196199 0l35.598312-35.598313c22.198948-22.198948 22.198948-58.197241 0-80.196198L665.199778 549.422496c-11.199469-11.199469-25.598787-16.599213-40.198094-16.599213z" fill="#4C4372" p-id="4381"></path></svg>